<svg width="76" height="110" viewBox="0 0 76 110" fill="none" xmlns="http://www.w3.org/2000/svg">
<path d="M25.1847 70.1261C23.9894 69.6894 22.8533 69.0994 21.8037 68.3703C20.7416 67.6261 19.7868 66.7336 18.9672 65.7189C18.1361 64.705 17.4235 63.5958 16.8439 62.4134V69.173C17.3322 68.9153 17.8767 68.7891 18.426 68.8063C19.1967 68.8185 19.9604 68.9565 20.6883 69.2152C21.4793 69.4856 22.3316 69.7796 23.2451 70.0973C24.1586 70.415 25.1179 70.7091 26.123 70.9795C26.573 71.0995 27.0294 71.1926 27.49 71.2583C27.5015 71.0724 27.5197 70.8882 27.5429 70.7074C26.7378 70.6052 25.9467 70.4102 25.1847 70.1261ZM41.2025 58.814C41.1942 58.7008 41.1826 58.5859 41.1677 58.476C41.1609 58.3904 41.1498 58.3053 41.1346 58.2208C41.133 58.1936 41.1297 58.1665 41.1247 58.1397C40.5874 54.5268 37.9357 51.5689 33.1696 49.2661L26.6244 46.0334C23.6026 44.4674 21.5643 43.0226 20.5096 41.6988C19.5972 40.5249 19.0339 39.3375 18.8199 38.1366C18.5994 36.9959 18.6864 35.8155 19.0715 34.7213C19.4838 33.6011 20.1629 32.6033 21.0474 31.8181C22.0532 30.9256 23.2487 30.2846 24.5393 29.9457C25.461 29.7182 26.4045 29.5952 27.3526 29.579C30.1339 29.579 32.3642 30.2031 34.0434 31.4514C35.7225 32.6996 37.1127 34.5242 38.2137 36.9249V31.0458C37.789 31.3378 37.2876 31.4916 36.7756 31.4869C36.4446 31.5866 36.0094 31.5477 35.4815 31.3753C34.863 31.1669 34.2616 30.9093 33.6826 30.6048C32.7025 30.0767 31.6641 29.6699 30.5896 29.3931C29.5757 29.1314 28.5341 28.9981 27.4883 28.996C26.4422 28.9947 25.401 29.1432 24.3953 29.437C22.8233 29.899 21.397 30.7729 20.258 31.9719C19.0583 33.1829 18.1153 34.633 17.4877 36.2321C16.8675 37.8058 16.5853 39.4972 16.6603 41.1919C16.7121 42.8627 17.3079 44.4681 18.3532 45.7546C18.7361 46.2931 19.5144 47.0158 20.6883 47.9227C21.8622 48.8296 23.7212 49.919 26.2653 51.1909C28.5182 52.366 30.3767 53.4188 31.8407 54.3493C33.3047 55.2799 34.4196 56.131 35.1853 56.9027C36.187 57.8124 36.9533 58.9606 37.4161 60.2453C37.4525 60.3535 37.4905 60.465 37.522 60.5833C37.5915 60.8097 37.6478 61.0362 37.6875 61.2592C37.9615 62.4694 37.9347 63.7303 37.6095 64.9271C37.2844 66.124 36.6711 67.2187 35.8257 68.1117C35.3634 68.6171 34.8322 69.0519 34.2486 69.4028C34.2486 69.4298 34.2651 69.4569 34.2734 69.4839C34.3048 69.5904 34.3396 69.6951 34.3793 69.8016C34.4008 69.8658 34.4257 69.9317 34.4521 69.9959C35.5585 69.4063 36.578 68.6605 37.4806 67.7805C38.5901 66.692 39.5022 65.4116 40.1748 63.9986C40.855 62.619 41.2125 61.097 41.219 59.5525C41.2273 59.3007 41.219 59.054 41.2025 58.814ZM39.3622 60.3907C39.3325 60.2741 39.301 60.1558 39.2646 60.0375C38.7371 58.3141 37.7654 56.7674 36.4513 55.5593C35.5775 54.6772 34.3859 53.7595 32.8105 52.7557C31.2929 51.7925 29.3749 50.7042 27.1011 49.5179L27.0729 49.5044C24.6485 48.2911 22.8728 47.2535 21.7938 46.4221C20.397 45.3456 19.9568 44.8217 19.831 44.646L19.8013 44.6037L19.7698 44.5632C19.2162 43.8848 18.8262 43.0831 18.6312 42.2227C18.7752 42.4339 18.9291 42.6435 19.0897 42.8513L19.1062 42.8716C20.3325 44.4111 22.5236 45.9878 25.8086 47.6895L32.3868 50.9374C36.6184 52.9856 38.8873 55.4291 39.3374 58.4169C39.3656 58.5858 39.3871 58.77 39.3987 58.9593C39.4102 59.1486 39.4202 59.348 39.4202 59.5474C39.4167 59.8294 39.3974 60.1109 39.3622 60.3907Z" fill="black"/>
<path d="M55.27 74.9388C54.3665 74.9388 53.7062 74.6566 53.2941 74.0939C52.8617 73.4858 52.5697 72.7856 52.4402 72.0458C52.3894 71.8588 52.3589 71.6667 52.3491 71.4729C52.3304 71.2126 52.3111 70.851 52.2912 70.388C52.2714 69.9283 52.2614 69.3251 52.2614 68.5815V54.2766C52.2614 52.2285 52.1831 50.7729 52.0264 49.91C51.8698 49.047 51.7523 48.4972 51.6739 48.2606C51.318 47.3935 50.7723 46.6212 50.0786 46.003C49.4106 45.4204 48.6544 44.9524 47.8395 44.6173C46.9752 44.2673 46.0729 44.0244 45.1519 43.894C44.2053 43.7555 43.2503 43.6849 42.2939 43.6827C41.0284 43.6873 39.7686 43.8576 38.5456 44.1897C37.3239 44.5088 36.1535 45.0057 35.0703 45.665C34.0979 46.2504 33.2504 47.029 32.578 47.9548L33.8506 48.5834C34.2643 48.7845 34.6648 48.989 35.0471 49.2019V49.0971C35.0471 48.1339 35.2832 47.3413 35.7554 46.7195C36.2321 46.0928 36.8363 45.5791 37.5262 45.2138C38.2571 44.8227 39.0423 44.5481 39.8546 44.3993C40.6622 44.2434 41.482 44.1631 42.3039 44.1593C43.5594 44.1593 44.6014 44.37 45.43 44.7913C46.2154 45.1779 46.8864 45.7704 47.3745 46.5082C47.8687 47.2812 48.2193 48.1405 48.4088 49.0431C48.6306 50.0526 48.7586 51.0812 48.7911 52.1153C48.8214 52.7608 48.6898 53.4035 48.4088 53.9826C48.1697 54.5504 47.794 55.0474 47.3166 55.4274C46.6606 55.8841 45.9706 56.2875 45.2529 56.634C44.5066 56.994 43.699 57.3573 42.8334 57.7172C42.5311 57.8558 42.2156 58.0023 41.8868 58.1566L41.5559 58.3121C41.5674 58.4152 41.5774 58.5182 41.5873 58.6213C41.5972 58.7244 41.5972 58.7903 41.6005 58.8731C41.7031 58.8207 41.8041 58.77 41.9067 58.721C42.2939 58.5318 42.6812 58.3577 43.0651 58.1989C44.2037 57.6772 45.2656 57.1652 46.2508 56.6627C47.1881 56.1954 48.0445 55.5749 48.7861 54.8258V72.7099C48.8258 73.7542 48.924 74.5474 49.0807 75.0892C49.2374 75.6311 49.415 76.0029 49.6136 76.2046C49.6693 76.2584 49.7182 76.3191 49.7592 76.3854C49.7951 76.4398 49.8466 76.4817 49.9065 76.5054C49.533 76.4188 49.168 76.2978 48.8159 76.1437C48.4581 75.9913 48.1128 75.8099 47.7833 75.6013C47.2333 75.2795 46.6621 74.9972 46.0737 74.7563C45.453 74.5099 44.7918 74.3872 44.1259 74.3947C43.7369 74.3975 43.3489 74.4382 42.9675 74.5164C42.5131 74.6095 42.0694 74.7505 41.6436 74.9372C41.0013 75.2076 40.3083 75.329 39.6145 75.2924C38.9208 75.2559 38.2436 75.0624 37.6321 74.7259C36.9048 74.3285 36.2476 73.8099 35.6876 73.1915C34.8049 72.1979 34.1904 71.2267 33.844 70.2781C33.8059 70.1717 33.7679 70.0669 33.7364 69.9604C33.705 69.854 33.6851 69.7915 33.662 69.7002C33.6388 69.6089 33.6222 69.5312 33.6073 69.4518C33.6073 69.4231 33.5958 69.396 33.5891 69.3673C33.5627 69.227 33.5445 69.0868 33.5279 68.9482C33.5103 68.7747 33.5026 68.6004 33.5047 68.426C33.5047 68.4007 33.5047 68.3753 33.5047 68.35C33.5047 68.2283 33.513 68.11 33.5196 67.99C33.5345 67.8042 33.5544 67.6216 33.5792 67.4391C33.758 66.2284 34.2289 65.082 34.9495 64.1033C35.6484 63.1411 36.4705 62.2789 37.3938 61.5398C37.364 61.4271 37.3325 61.3105 37.2994 61.1899C37.239 60.9892 37.1683 60.7917 37.0876 60.5985C36.3077 61.0717 35.5536 61.5878 34.8287 62.1447C33.5966 63.0839 32.5041 64.2 31.585 65.4586C31.0504 66.1895 30.6654 67.0228 30.4531 67.9089C30.4132 68.0631 30.3817 68.2193 30.3588 68.377C30.2923 68.7677 30.2586 69.1634 30.2578 69.5599V69.5819C30.2578 69.7357 30.2578 69.8878 30.2578 70.0382C30.3339 71.9624 30.8922 73.5768 31.9326 74.8814C33.0568 76.2863 34.7012 76.9887 36.8658 76.9887C37.6456 77.0055 38.4227 76.8913 39.1662 76.6507C39.7519 76.4478 40.324 76.2062 40.879 75.9274C41.387 75.6672 41.8901 75.4205 42.38 75.2042C42.912 74.9736 43.4851 74.8585 44.063 74.8662C44.5722 74.8784 45.0775 74.9597 45.5657 75.1078C46.2518 75.3171 46.9142 75.6004 47.5416 75.9528C48.0547 76.235 48.5644 76.4952 49.0757 76.7352C49.6133 76.9823 50.1975 77.1058 50.7869 77.0968C51.696 77.1054 52.5948 76.8996 53.4132 76.4952C54.224 76.0902 54.97 75.562 55.6258 74.9287L55.27 74.9388ZM50.9243 75.7534C50.8278 75.5742 50.7057 75.4107 50.5618 75.2684C50.4658 75.0913 50.3929 74.9021 50.345 74.7056C50.2606 74.4082 50.1465 73.8151 50.1051 72.6778V52.5648C50.115 52.3993 50.115 52.2334 50.1051 52.068V51.561L50.0819 51.5863C50.0266 50.6284 49.8949 49.6767 49.688 48.7406C49.5494 48.1165 49.3503 47.5079 49.0939 46.9239L49.2197 47.0304C49.7434 47.4973 50.1569 48.0791 50.4294 48.7321C50.4658 48.8605 50.5503 49.2205 50.724 50.1635C50.82 50.7008 50.9375 51.8533 50.9375 54.2834V68.5899C50.9375 69.3521 50.9474 69.9807 50.9673 70.4488C50.9871 70.9169 51.007 71.2769 51.0285 71.5709V71.5878C51.0454 71.8554 51.087 72.1207 51.1526 72.3804C51.327 73.2961 51.6966 74.1615 52.2349 74.9152C52.36 75.0831 52.4996 75.2392 52.652 75.3816C52.1057 75.6206 51.5185 75.747 50.9243 75.7534Z" fill="black"/>
<path d="M37.8488 60.7016C37.7895 60.5008 37.7199 60.3034 37.6403 60.1101L37.4219 60.2453C37.4583 60.3534 37.4963 60.465 37.5278 60.5833C37.5973 60.8097 37.6536 61.0362 37.6933 61.2592C37.7711 61.1899 37.8588 61.124 37.9349 61.0564C37.9128 60.937 37.8841 60.8187 37.8488 60.7016Z" fill="black"/>
<path d="M41.1745 58.4743C41.1676 58.3887 41.1566 58.3036 41.1414 58.2191C41.1391 58.1919 41.1352 58.1648 41.1298 58.138L40.2907 58.5402L39.6172 58.8646C39.6619 59.1131 39.6983 59.3716 39.7231 59.6217L40.2593 59.3175C40.5787 59.1485 40.8931 58.9796 41.2092 58.8106C41.2009 58.7007 41.1894 58.5858 41.1745 58.4743Z" fill="black"/>
<path d="M64.8723 11.6476C59.5581 6.22014 52.787 2.52379 45.4154 1.02606C38.0439 -0.471667 30.4029 0.29649 23.4589 3.23338C16.5149 6.17027 10.5797 11.144 6.40403 17.5255C2.22836 23.907 -0.000271106 31.4096 2.47361e-08 39.0846V70.9169C2.47361e-08 81.2081 4.00355 91.0779 11.1299 98.3549C18.2563 105.632 27.9217 109.72 37.9999 109.72C48.0781 109.72 57.7436 105.632 64.8699 98.3549C71.9963 91.0779 75.9999 81.2081 75.9999 70.9169V39.0846C76.0138 33.9871 75.0375 28.9375 73.1275 24.2279C71.2174 19.5183 68.4115 15.2424 64.8723 11.6476ZM74.5535 70.9169C74.5535 91.498 58.1567 108.24 38.0016 108.24C17.8465 108.24 1.4497 91.498 1.4497 70.9169V39.0846C1.4497 18.5052 17.8465 1.76179 38.0016 1.76179C58.1567 1.76179 74.5535 18.5052 74.5535 39.0846V70.9169Z" fill="black"/>
<path d="M27.5518 70.7006C28.1762 70.8012 28.8123 70.8012 29.4367 70.7006V71.2515H27.4988L27.1562 70.9761L27.5518 70.7006Z" fill="black"/>
</svg>
